<svg width="217" height="112" viewBox="0 0 217 112" fill="none" xmlns="http://www.w3.org/2000/svg">
<path d="M216.5 0.25H206.5C205.395 0.25 204.5 1.14543 204.5 2.25V33.25C204.5 34.3546 205.395 35.25 206.5 35.25H216.5" stroke="#7D3B27" stroke-width="0.5"/>
<g filter="url(#filter0_d_125_616)">
<path d="M204.75 54.75H185.75C184.645 54.75 183.75 55.6454 183.75 56.75V88.25C183.75 89.3546 182.855 90.25 181.75 90.25H6.25001C5.14544 90.25 4.25001 91.1454 4.25001 92.25V103.75" stroke="#7D3B27" stroke-width="0.5"/>
</g>
<path d="M201.75 54.75V58.75C201.75 59.8546 200.855 60.75 199.75 60.75H183.75" stroke="#7D3B27" stroke-width="0.5"/>
<rect x="-0.353553" width="8.5" height="8.5" transform="matrix(-0.707107 -0.707107 -0.707107 0.707107 215.646 54.364)" fill="white" stroke="#7D3B27" stroke-width="0.5"/>
<defs>
<filter id="filter0_d_125_616" x="0" y="54.5" width="208.75" height="57.25" filterUnits="userSpaceOnUse" color-interpolation-filters="sRGB">
<feFlood flood-opacity="0" result="BackgroundImageFix"/>
<feColorMatrix in="SourceAlpha" type="matrix" values="0 0 0 0 0 0 0 0 0 0 0 0 0 0 0 0 0 0 127 0" result="hardAlpha"/>
<feOffset dy="4"/>
<feGaussianBlur stdDeviation="2"/>
<feComposite in2="hardAlpha" operator="out"/>
<feColorMatrix type="matrix" values="0 0 0 0 0 0 0 0 0 0 0 0 0 0 0 0 0 0 0.25 0"/>
<feBlend mode="normal" in2="BackgroundImageFix" result="effect1_dropShadow_125_616"/>
<feBlend mode="normal" in="SourceGraphic" in2="effect1_dropShadow_125_616" result="shape"/>
</filter>
</defs>
</svg>
